<svg width="85" height="85" viewBox="0 0 85 85" fill="none" xmlns="http://www.w3.org/2000/svg">
<g clip-path="url(#clip0_104_5697)">
<g filter="url(#filter0_d_104_5697)">
<path d="M53 104.13C81.7188 104.13 105 80.8487 105 52.1299C105 23.4111 81.7188 0.129883 53 0.129883C24.2812 0.129883 1 23.4111 1 52.1299C1 80.8487 24.2812 104.13 53 104.13Z" fill="#F5F5F5"/>
</g>
<mask id="mask0_104_5697" style="mask-type:luminance" maskUnits="userSpaceOnUse" x="7" y="6" width="93" height="93">
<path d="M99.4392 6.12988H7V98.5691H99.4392V6.12988Z" fill="white"/>
</mask>
<g mask="url(#mask0_104_5697)">
<g filter="url(#filter1_d_104_5697)">
<g filter="url(#filter2_d_104_5697)">
<path d="M44.3527 49.2318C44.3532 49.2321 44.3537 49.2324 44.3542 49.2328L44.3527 49.2318ZM44.3555 49.2337C44.3551 49.2334 44.3547 49.2331 44.3542 49.2328L44.3555 49.2337ZM44.3542 49.2328C43.5494 48.6759 43.0775 47.7844 43.0775 46.7907V32.9994C43.0775 27.9533 47.0951 23.8907 51.9829 23.8907H54.8876C59.8011 23.8907 63.793 27.9796 63.793 32.9994V46.7907C63.793 47.7571 63.3206 48.6747 62.5195 49.2306C61.5978 49.8385 61.0821 50.8754 61.0821 51.9624V65.245C61.0821 66.7313 61.9052 68.0911 63.2357 68.7707L63.2387 68.7722C64.9145 69.6142 73.6984 74.1437 81.8146 80.9456L81.8164 80.9471C82.5824 81.5829 83.0189 82.5417 83.0189 83.5581V92.9885C82.9586 94.7971 84.4044 96.2668 86.2023 96.2668C88.0099 96.2668 89.4409 94.7893 89.4409 92.9689V83.5298C89.4409 80.5318 88.1615 77.7338 85.888 75.8277C78.6587 69.7423 70.9348 65.3843 67.5317 63.5866V53.468C69.2495 51.6941 70.2427 49.3121 70.2427 46.7624V32.9711C70.2427 24.311 63.3338 17.2668 54.8599 17.2668H51.9553C43.4526 17.2668 36.5725 24.3405 36.5725 32.9711V46.7624C36.5725 49.3121 37.5657 51.6941 39.2835 53.468V63.5866C35.8804 65.3844 28.1565 69.7423 20.9272 75.8277C18.6537 77.7338 17.3743 80.5318 17.3743 83.5298V92.9689C17.3743 94.7893 18.8053 96.2668 20.6129 96.2668C22.4206 96.2668 23.8516 94.7893 23.8516 92.9689V83.5298C23.8516 82.5134 24.2882 81.5547 25.0541 80.9189L25.0559 80.9174C33.1675 74.1193 41.9461 69.5911 43.629 68.7454C44.9674 68.0929 45.7885 66.7283 45.7885 65.245V51.9624C45.7885 50.8653 45.2372 49.8349 44.3542 49.2328Z" fill="#F14D34"/>
<path d="M44.3527 49.2318C44.3532 49.2321 44.3537 49.2324 44.3542 49.2328M44.3542 49.2328C44.3547 49.2331 44.3551 49.2334 44.3555 49.2337M44.3542 49.2328C43.5494 48.6759 43.0775 47.7844 43.0775 46.7907V32.9994C43.0775 27.9533 47.0951 23.8907 51.9829 23.8907H54.8876C59.8011 23.8907 63.793 27.9796 63.793 32.9994V46.7907C63.793 47.7571 63.3206 48.6747 62.5195 49.2306C61.5978 49.8385 61.0821 50.8754 61.0821 51.9624V65.245C61.0821 66.7313 61.9052 68.0911 63.2357 68.7707L63.2387 68.7722C64.9145 69.6142 73.6984 74.1437 81.8146 80.9456L81.8164 80.9471C82.5824 81.5829 83.0189 82.5417 83.0189 83.5581V92.9885C82.9586 94.7971 84.4044 96.2668 86.2023 96.2668C88.0099 96.2668 89.4409 94.7893 89.4409 92.9689V83.5298C89.4409 80.5318 88.1615 77.7338 85.888 75.8277C78.6587 69.7423 70.9348 65.3843 67.5317 63.5866V53.468C69.2495 51.6941 70.2427 49.3121 70.2427 46.7624V32.9711C70.2427 24.311 63.3338 17.2668 54.8599 17.2668H51.9553C43.4526 17.2668 36.5725 24.3405 36.5725 32.9711V46.7624C36.5725 49.3121 37.5657 51.6941 39.2835 53.468V63.5866C35.8804 65.3844 28.1565 69.7423 20.9272 75.8277C18.6537 77.7338 17.3743 80.5318 17.3743 83.5298V92.9689C17.3743 94.7893 18.8053 96.2668 20.6129 96.2668C22.4206 96.2668 23.8516 94.7893 23.8516 92.9689V83.5298C23.8516 82.5134 24.2882 81.5547 25.0541 80.9189L25.0559 80.9174C33.1675 74.1193 41.9461 69.5911 43.629 68.7454C44.9674 68.0929 45.7885 66.7283 45.7885 65.245V51.9624C45.7885 50.8653 45.2372 49.8349 44.3542 49.2328Z" stroke="#F14D34"/>
</g>
</g>
</g>
</g>
<defs>
<filter id="filter0_d_104_5697" x="0" y="0.129883" width="106" height="106" filterUnits="userSpaceOnUse" color-interpolation-filters="sRGB">
<feFlood flood-opacity="0" result="BackgroundImageFix"/>
<feColorMatrix in="SourceAlpha" type="matrix" values="0 0 0 0 0 0 0 0 0 0 0 0 0 0 0 0 0 0 127 0" result="hardAlpha"/>
<feOffset dy="1"/>
<feGaussianBlur stdDeviation="0.5"/>
<feColorMatrix type="matrix" values="0 0 0 0 0 0 0 0 0 0 0 0 0 0 0 0 0 0 0.1 0"/>
<feBlend mode="normal" in2="BackgroundImageFix" result="effect1_dropShadow_104_5697"/>
<feBlend mode="normal" in="SourceGraphic" in2="effect1_dropShadow_104_5697" result="shape"/>
</filter>
<filter id="filter1_d_104_5697" x="15.8743" y="16.7668" width="75.0667" height="82" filterUnits="userSpaceOnUse" color-interpolation-filters="sRGB">
<feFlood flood-opacity="0" result="BackgroundImageFix"/>
<feColorMatrix in="SourceAlpha" type="matrix" values="0 0 0 0 0 0 0 0 0 0 0 0 0 0 0 0 0 0 127 0" result="hardAlpha"/>
<feOffset dy="1"/>
<feGaussianBlur stdDeviation="0.5"/>
<feColorMatrix type="matrix" values="0 0 0 0 0 0 0 0 0 0 0 0 0 0 0 0 0 0 0.1 0"/>
<feBlend mode="normal" in2="BackgroundImageFix" result="effect1_dropShadow_104_5697"/>
<feBlend mode="normal" in="SourceGraphic" in2="effect1_dropShadow_104_5697" result="shape"/>
</filter>
<filter id="filter2_d_104_5697" x="15.8743" y="16.7668" width="75.0667" height="82" filterUnits="userSpaceOnUse" color-interpolation-filters="sRGB">
<feFlood flood-opacity="0" result="BackgroundImageFix"/>
<feColorMatrix in="SourceAlpha" type="matrix" values="0 0 0 0 0 0 0 0 0 0 0 0 0 0 0 0 0 0 127 0" result="hardAlpha"/>
<feOffset dy="1"/>
<feGaussianBlur stdDeviation="0.5"/>
<feColorMatrix type="matrix" values="0 0 0 0 0 0 0 0 0 0 0 0 0 0 0 0 0 0 0.05 0"/>
<feBlend mode="normal" in2="BackgroundImageFix" result="effect1_dropShadow_104_5697"/>
<feBlend mode="normal" in="SourceGraphic" in2="effect1_dropShadow_104_5697" result="shape"/>
</filter>
<clipPath id="clip0_104_5697">
<rect width="85" height="84" fill="white" transform="translate(0 0.129883)"/>
</clipPath>
</defs>
</svg>
