<svg viewBox="0 0 672 744" fill="none" xmlns="http://www.w3.org/2000/svg">
<path fill-rule="evenodd" clip-rule="evenodd" d="M364.308 76.387C383.826 79.872 403.629 83.4081 424.76 90.1503C425.15 90.2776 425.568 90.4139 426.016 90.5594C456.002 100.315 613.407 151.528 660.495 337.669C708.292 526.587 590.541 689.104 418.408 732.651C246.275 776.197 57.0089 679.978 10.4819 496.064C-36.0455 312.151 86.0429 190.237 109.056 170.018C115.726 163.839 122.024 158.315 128.16 152.933C146.932 136.468 164.196 121.326 186.022 92.7873C199.506 74.212 209.545 50.4598 202.073 0C235.565 24.2405 275.306 52.0972 301.237 61.4675C322.79 68.9729 343.385 72.6506 364.308 76.387ZM179.319 571.596C166.025 516.008 204.968 450.781 270.483 433.227C319.114 420.477 366.238 438.567 405.399 453.6C433.38 464.341 457.296 473.522 474.791 468.776C492.69 463.862 514.5 439.279 536.031 415.011C557.228 391.118 578.154 367.531 594.81 363.318C630.514 354.286 649.881 388.83 655.467 410.928C661.06 433.027 664.017 474.746 653.402 503.97C642.781 533.193 633.978 545.302 613.836 548.864C601.647 550.899 579.675 537.583 556.307 523.42C529.351 507.084 500.539 489.621 482.745 493.302C464.222 497.311 440.679 521.014 414.076 547.796C380.354 581.746 341.717 620.645 302.16 630.652C259.318 641.491 244.851 638.293 228.19 632.668C202.981 623.115 186.537 602.995 179.289 571.476L179.319 571.596ZM512.439 545.721C502.487 542.148 490.149 544.503 478.717 547.395L478.757 547.385C477.427 547.721 476.163 548.03 474.949 548.327C465.723 550.586 459.422 552.128 449.834 559.259C439.192 567.175 429.53 581.401 423.294 590.583L422.936 591.11C416.716 600.266 416.84 606.496 422.531 610.935C428.193 615.353 431.579 610.768 441.109 597.865L441.244 597.681C442.083 596.546 442.891 595.43 443.685 594.333L443.689 594.328L443.69 594.327C452.017 582.829 458.752 573.53 481.564 567.759C506.009 561.575 512.811 569.105 520.026 577.092L520.295 577.389L520.511 577.628L520.585 577.709C527.923 585.815 529.007 587.012 533.247 582.925C534.529 582.119 535.618 581.043 536.437 579.771C537.256 578.5 537.786 577.065 537.989 575.567C538.193 574.07 538.065 572.546 537.613 571.104C537.162 569.662 536.399 568.337 535.379 567.222L535.321 567.143C530.659 560.723 522.351 549.28 512.439 545.721ZM467.366 658.757C421.635 670.326 397.864 666.458 380.697 658.661L380.797 658.551C380.441 658.427 380.151 658.317 379.902 658.223L379.9 658.222C378.42 657.661 378.42 657.661 374.746 658.59C370.76 659.907 367.395 662.638 365.291 666.265C364.506 667.483 363.98 668.85 363.746 670.279C363.512 671.709 363.574 673.171 363.929 674.574C364.284 675.978 364.925 677.294 365.811 678.44C366.696 679.586 367.809 680.538 369.079 681.237C407.71 701.835 459.313 686.48 497.002 673.154C523.398 663.079 546.655 646.202 564.401 624.242C565.683 622.356 566.355 620.124 566.328 617.846C566.302 615.568 565.576 613.354 564.251 611.501C562.799 608.802 558.837 605.288 553.675 611.876C541.978 626.208 513.097 647.188 467.366 658.757Z" fill="url(#paint0_linear_134_298)"/>
<defs>
<linearGradient id="paint0_linear_134_298" x1="797.5" y1="-557.5" x2="-147.5" y2="-31" gradientUnits="userSpaceOnUse">
<stop/>
<stop offset="1" stop-color="white" stop-opacity="0"/>
</linearGradient>
</defs>
</svg>
